<svg width="90" height="90" viewBox="0 0 90 90" fill="none" xmlns="http://www.w3.org/2000/svg">
<circle cx="45" cy="45" r="45" fill="#F05454"/>
<path fill-rule="evenodd" clip-rule="evenodd" d="M20 29L26.1861 29V28L20 28V29ZM26.1861 29V34.3078H68.996V35.2826L69.007 35.288L59.3835 54.8884L59.3732 54.8833V54.9087H35.3163V54.8838L35.306 54.8888L25.6833 35.288L25.6936 35.283V34.8076H25.1861V29H26.1861ZM26.807 35.3078L35.9388 53.9087H58.7505L67.8833 35.3078H26.807ZM42.2425 58.4366C42.2425 59.9401 41.0885 61.159 39.665 61.159C38.2415 61.159 37.0875 59.9401 37.0875 58.4366C37.0875 56.9331 38.2415 55.7143 39.665 55.7143C41.0885 55.7143 42.2425 56.9331 42.2425 58.4366ZM54.8187 61.159C56.2422 61.159 57.3962 59.9401 57.3962 58.4366C57.3962 56.9331 56.2422 55.7143 54.8187 55.7143C53.3952 55.7143 52.2412 56.9331 52.2412 58.4366C52.2412 59.9401 53.3952 61.159 54.8187 61.159Z" fill="#30475E"/>
<path d="M26.1861 29L26.1861 29.5C26.3187 29.5 26.4458 29.4473 26.5396 29.3536C26.6334 29.2598 26.6861 29.1326 26.6861 29H26.1861ZM20 29H19.5C19.5 29.2761 19.7239 29.5 20 29.5L20 29ZM26.1861 28H26.6861C26.6861 27.7239 26.4622 27.5 26.1861 27.5L26.1861 28ZM20 28L20 27.5C19.8674 27.5 19.7402 27.5527 19.6464 27.6464C19.5527 27.7402 19.5 27.8674 19.5 28H20ZM26.1861 34.3078H25.6861C25.6861 34.584 25.9099 34.8078 26.1861 34.8078V34.3078ZM26.1861 29H26.6861C26.6861 28.7239 26.4622 28.5 26.1861 28.5V29ZM68.996 34.3078H69.496C69.496 34.0317 69.2721 33.8078 68.996 33.8078V34.3078ZM68.996 35.2826H68.496C68.496 35.4733 68.6044 35.6474 68.7756 35.7314L68.996 35.2826ZM69.007 35.288L69.4559 35.5084C69.5776 35.2605 69.4753 34.9609 69.2274 34.8392L69.007 35.288ZM59.3835 54.8884L59.1632 55.3372C59.411 55.4589 59.7106 55.3566 59.8323 55.1088L59.3835 54.8884ZM59.3732 54.8833L59.5936 54.4345C59.4386 54.3584 59.2553 54.3677 59.1088 54.459C58.9623 54.5503 58.8732 54.7107 58.8732 54.8833H59.3732ZM59.3732 54.9087V55.4087C59.6494 55.4087 59.8732 55.1848 59.8732 54.9087H59.3732ZM35.3163 54.9087H34.8163C34.8163 55.1848 35.0402 55.4087 35.3163 55.4087V54.9087ZM35.3163 54.8838H35.8163C35.8163 54.7111 35.7272 54.5507 35.5807 54.4594C35.4342 54.3681 35.2509 54.3589 35.0959 54.435L35.3163 54.8838ZM35.306 54.8888L34.8572 55.1092C34.9156 55.2282 35.019 55.3192 35.1445 55.362C35.27 55.4049 35.4074 55.3961 35.5264 55.3376L35.306 54.8888ZM25.6833 35.288L25.4629 34.8392C25.215 34.9609 25.1127 35.2605 25.2344 35.5084L25.6833 35.288ZM25.6936 35.283L25.9139 35.7318C26.0851 35.6478 26.1936 35.4737 26.1936 35.283H25.6936ZM25.6936 34.8076H26.1936C26.1936 34.5315 25.9697 34.3076 25.6936 34.3076V34.8076ZM25.1861 34.8076H24.6861C24.6861 35.0838 24.9099 35.3076 25.1861 35.3076V34.8076ZM25.1861 29V28.5C24.9099 28.5 24.6861 28.7239 24.6861 29H25.1861ZM35.9388 53.9087L35.49 54.129C35.574 54.3002 35.7481 54.4087 35.9388 54.4087V53.9087ZM26.807 35.3078V34.8078C26.6344 34.8078 26.4739 34.8969 26.3826 35.0434C26.2913 35.19 26.2821 35.3732 26.3582 35.5282L26.807 35.3078ZM58.7505 53.9087V54.4087C58.9412 54.4087 59.1153 54.3002 59.1993 54.129L58.7505 53.9087ZM67.8833 35.3078L68.3321 35.5282C68.4082 35.3732 68.3989 35.19 68.3076 35.0434C68.2164 34.8969 68.0559 34.8078 67.8833 34.8078V35.3078ZM26.1861 28.5L20 28.5L20 29.5L26.1861 29.5L26.1861 28.5ZM25.6861 28V29H26.6861V28H25.6861ZM20 28.5L26.1861 28.5L26.1861 27.5L20 27.5L20 28.5ZM20.5 29V28H19.5V29H20.5ZM26.6861 34.3078V29H25.6861V34.3078H26.6861ZM68.996 33.8078H26.1861V34.8078H68.996V33.8078ZM69.496 35.2826V34.3078H68.496V35.2826H69.496ZM69.2274 34.8392L69.2163 34.8338L68.7756 35.7314L68.7867 35.7368L69.2274 34.8392ZM59.8323 55.1088L69.4559 35.5084L68.5582 35.0677L58.9347 54.668L59.8323 55.1088ZM59.1529 55.3322L59.1632 55.3372L59.6038 54.4396L59.5936 54.4345L59.1529 55.3322ZM59.8732 54.9087V54.8833H58.8732V54.9087H59.8732ZM35.3163 55.4087H59.3732V54.4087H35.3163V55.4087ZM34.8163 54.8838V54.9087H35.8163V54.8838H34.8163ZM35.5264 55.3376L35.5367 55.3326L35.0959 54.435L35.0857 54.44L35.5264 55.3376ZM25.2344 35.5084L34.8572 55.1092L35.7549 54.6685L26.1321 35.0677L25.2344 35.5084ZM25.4732 34.8341L25.4629 34.8392L25.9036 35.7368L25.9139 35.7318L25.4732 34.8341ZM25.1936 34.8076V35.283H26.1936V34.8076H25.1936ZM25.1861 35.3076H25.6936V34.3076H25.1861V35.3076ZM24.6861 29V34.8076H25.6861V29H24.6861ZM26.1861 28.5H25.1861V29.5H26.1861V28.5ZM36.3877 53.6883L27.2558 35.0875L26.3582 35.5282L35.49 54.129L36.3877 53.6883ZM58.7505 53.4087H35.9388V54.4087H58.7505V53.4087ZM67.4345 35.0875L58.3017 53.6883L59.1993 54.129L68.3321 35.5282L67.4345 35.0875ZM26.807 35.8078H67.8833V34.8078H26.807V35.8078ZM39.665 61.659C41.3901 61.659 42.7425 60.1902 42.7425 58.4366H41.7425C41.7425 59.6901 40.787 60.659 39.665 60.659V61.659ZM36.5875 58.4366C36.5875 60.1902 37.9399 61.659 39.665 61.659V60.659C38.543 60.659 37.5875 59.6901 37.5875 58.4366H36.5875ZM39.665 55.2143C37.9399 55.2143 36.5875 56.6831 36.5875 58.4366H37.5875C37.5875 57.1832 38.543 56.2143 39.665 56.2143V55.2143ZM42.7425 58.4366C42.7425 56.6831 41.3901 55.2143 39.665 55.2143V56.2143C40.787 56.2143 41.7425 57.1832 41.7425 58.4366H42.7425ZM56.8962 58.4366C56.8962 59.6901 55.9407 60.659 54.8187 60.659V61.659C56.5438 61.659 57.8962 60.1902 57.8962 58.4366H56.8962ZM54.8187 56.2143C55.9407 56.2143 56.8962 57.1832 56.8962 58.4366H57.8962C57.8962 56.6831 56.5438 55.2143 54.8187 55.2143V56.2143ZM52.7412 58.4366C52.7412 57.1832 53.6967 56.2143 54.8187 56.2143V55.2143C53.0936 55.2143 51.7412 56.6831 51.7412 58.4366H52.7412ZM54.8187 60.659C53.6967 60.659 52.7412 59.6901 52.7412 58.4366H51.7412C51.7412 60.1902 53.0936 61.659 54.8187 61.659V60.659ZM33.5201 35.4835L40.4982 54.0843L41.4345 53.733L34.4564 35.1322L33.5201 35.4835ZM53.8019 54.0842L60.7783 35.4834L59.8419 35.1323L52.8656 53.7331L53.8019 54.0842ZM47.1499 35.3078V53.9087H48.1499V35.3078H47.1499ZM29.3454 40.9783H65.0208V39.9783H29.3454V40.9783ZM32.1966 46.7859H62.4932V45.7859H32.1966V46.7859Z" fill="#30475E"/>
</svg>
